<?xml version="1.0" encoding="UTF-8" standalone="no"?>
<!-- MAYAN SYMBOLS REFERENCE -->
<svg xmlns="http://www.w3.org/2000/svg" viewBox="0 0 60 60">
  <g id="football">
    <path fill="transparent" stroke="#000" stroke-width="1.5" d="
    M30 30 
    c 20 0 25 7 25 10
      0 3 -5 10 -25 10
      -20 0 -25 -7 -25 -10
      0 -3 5 -10 25 -10
    m -24.6 9
    c 10 5 30 8 49.2 0
    m -15 -8.4
    c -2 3 -2 8 0 12.4
    m -10 -12.9
    c -2 5 -2 9 0 13.5
    m -10 -12.6
    c -2 3 -2 8 0 12.4" />
  </g>
  <g id="dot">
    <circle cx="10" cy="10" r="5" fill="#000"/>
  </g>
  <g id="line">
    <rect x="5" y="20" width="50" height="5" fill="#000" />
  </g>
</svg>
